<svg viewbox="0 0 510 180" xmlns="http://www.w3.org/2000/svg">
 <metadata id="metadata99">image/svg+xml</metadata>
 <g>
  <title>Layer 1</title>
  <g id="g92">
   <path id="path90" d="m134.507,105.532l0,10.748l11.842,0l0,-10.748l-11.842,0zm103.197,0l0,10.748l11.842,0l0,-10.748l-11.842,0zm-216.545,4.677c-1.891,0 -3.981,0.398 -6.269,1.095c-2.189,0.697 -4.279,1.791 -6.17,3.383c-1.891,1.493 -3.483,3.483 -4.777,5.971c-1.294,2.488 -1.891,5.473 -1.891,9.056c0,3.583 0.597,6.568 1.891,9.056c1.294,2.488 2.886,4.478 4.777,5.971c1.891,1.592 3.981,2.687 6.17,3.384c2.289,0.697 4.379,0.995 6.269,0.995l27.367,0c1.095,0 2.09,0.199 2.985,0.498c0.896,0.398 1.692,0.896 2.289,1.592c0.697,0.697 1.194,1.493 1.493,2.388c0.299,0.896 0.498,1.891 0.498,2.985c0,2.289 -0.597,4.08 -1.891,5.473c-1.294,1.294 -3.085,1.99 -5.374,1.99l-45.876,0l0,11.942l45.876,0c1.294,0 2.687,-0.199 4.08,-0.498c1.493,-0.298 2.886,-0.796 4.379,-1.393c1.393,-0.697 2.687,-1.493 4.08,-2.488c1.294,-0.995 2.388,-2.189 3.384,-3.682c0.995,-1.393 1.791,-3.085 2.388,-4.976c0.597,-1.891 0.896,-3.981 0.896,-6.369c0,-2.289 -0.299,-4.379 -0.896,-6.269c-0.597,-1.891 -1.393,-3.483 -2.388,-4.976c-0.995,-1.393 -2.09,-2.687 -3.384,-3.682c-1.294,-0.995 -2.687,-1.891 -4.08,-2.488c-1.393,-0.696 -2.786,-1.194 -4.279,-1.493c-1.393,-0.398 -2.786,-0.498 -4.08,-0.597l-0.1,0l-27.367,0c-2.289,0 -4.08,-0.597 -5.274,-1.891c-1.294,-1.393 -1.891,-3.185 -1.891,-5.473s0.597,-4.08 1.891,-5.473c1.194,-1.393 2.985,-2.09 5.274,-2.09l40.503,0l0,-11.942l-40.503,0l0,0.001zm138.027,0l0,65.779l11.942,0l0,-26.869l41.796,0l0,26.869l11.942,0l0,-65.779l-11.942,0l0,26.869l-41.796,0l0,-26.869l-11.942,0zm-67.172,16.221c-1.99,0 -3.881,0.298 -5.473,0.796c-1.592,0.498 -3.085,1.194 -4.279,2.09c-1.294,0.796 -2.289,1.791 -3.184,2.985c-0.896,1.095 -1.592,2.289 -2.09,3.483c-0.597,1.294 -0.995,2.488 -1.294,3.781c-0.199,1.194 -0.299,2.388 -0.299,3.583l0,16.121c0,3.085 0.498,5.672 1.592,7.762c1.194,2.189 2.587,3.881 4.18,5.175c1.692,1.393 3.483,2.289 5.473,2.886c1.99,0.597 3.782,0.896 5.374,0.896l32.342,0l0,-11.942l-32.243,0c-1.592,0 -2.786,-0.398 -3.583,-1.194c-0.796,-0.896 -1.294,-2.09 -1.294,-3.583l0,-16.022c0,-1.692 0.398,-2.886 1.194,-3.682c0.896,-0.796 2.09,-1.194 3.583,-1.194l32.342,0l0,-11.941l-32.341,0zm42.493,0l0,49.559l11.842,0l0,-49.559l-11.842,0zm103.197,0l0,49.559l11.842,0l0,-49.559l-11.842,0zm23.187,0l0,43.687c0,0.896 0.199,1.592 0.498,2.388c0.299,0.696 0.697,1.294 1.294,1.891c0.498,0.498 1.194,0.896 1.891,1.194c0.796,0.298 1.493,0.497 2.388,0.497c4.777,0 9.255,-0.696 13.335,-1.99c4.08,-1.294 7.862,-3.085 11.345,-5.374c3.583,-2.289 6.767,-4.976 9.653,-8.061c2.886,-3.185 5.473,-6.568 7.762,-10.25c2.388,-3.682 4.478,-7.563 6.269,-11.643c1.791,-3.981 3.383,-8.16 4.677,-12.34l-12.638,0c-0.498,2.09 -1.393,4.478 -2.488,7.165c-1.095,2.687 -2.488,5.374 -4.08,8.16c-1.592,2.687 -3.384,5.374 -5.374,8.061c-2.09,2.587 -4.279,4.976 -6.667,7.066c-2.388,1.99 -4.876,3.682 -7.563,4.876c-2.687,1.294 -5.473,1.891 -8.359,1.891l0,-37.218l-11.943,0zm78.816,0c-2.985,0 -5.473,0.597 -7.663,1.692c-1.99,1.095 -3.682,2.388 -5.075,4.08c-1.294,1.592 -2.189,3.384 -2.786,5.274c-0.597,1.99 -0.796,3.682 -0.796,5.374l0,16.718c0,2.986 0.498,5.573 1.592,7.663c1.095,2.09 2.488,3.782 4.08,5.075c1.692,1.294 3.384,2.189 5.274,2.786c1.99,0.597 3.782,0.896 5.374,0.896l21.495,0l0,-11.345l-21.396,0c-1.393,0 -2.687,-0.497 -3.682,-1.393c-0.995,-0.896 -1.493,-2.09 -1.493,-3.682l0,-0.299l26.57,0c2.985,0 5.573,-0.597 7.663,-1.692c2.09,-1.095 3.782,-2.488 5.075,-4.08c1.294,-1.592 2.289,-3.383 2.786,-5.274c0.597,-1.99 0.896,-3.782 0.896,-5.374c0,-2.986 -0.498,-5.573 -1.592,-7.663c-1.194,-2.09 -2.488,-3.782 -4.18,-5.075c-1.592,-1.294 -3.384,-2.189 -5.274,-2.786c-1.891,-0.597 -3.682,-0.896 -5.374,-0.896l-21.494,0l0,0.001zm0,11.345l21.495,0c1.393,0 2.587,0.398 3.583,1.294c0.995,0.896 1.493,2.09 1.493,3.682c0,1.493 -0.398,2.687 -1.294,3.682c-0.896,0.995 -2.09,1.493 -3.782,1.493l-26.57,0l0,-4.976c0,-1.493 0.498,-2.687 1.393,-3.682c0.796,-0.996 2.089,-1.493 3.682,-1.493l0,0z" fill="#FFFFFF"/>
   <g stroke="null" id="svg_1">
    <polygon stroke="null" id="polygon48" points="495.6627197265625,50.808837890625 505.947998046875,68.68121337890625 495.6627197265625,86.55360412597656 475.00830078125,86.55360412597656 464.6383056640625,68.68121337890625 475.00830078125,50.808837890625 " fill="#FFFFFF"/>
    <polygon stroke="null" id="polygon50" points="484.7115478515625,28.97429656982422 489.34808349609375,36.98243713378906 484.7115478515625,44.907562255859375 475.52252197265625,44.907562255859375 470.88519287109375,36.98243713378906 475.52252197265625,28.97429656982422 " fill="#FFFFFF"/>
    <polygon stroke="null" id="polygon52" points="341.5537414550781,49.29156494140625 353.0199279785156,69.27166748046875 341.5537414550781,89.16706848144531 318.45440673828125,89.16706848144531 306.9890441894531,69.27166748046875 318.45440673828125,49.29156494140625 " fill="#FFFFFF"/>
    <polygon stroke="null" id="polygon54" points="380.4185791015625,29.395339965820312 390.7877502441406,47.35243225097656 380.4185791015625,65.22482299804688 359.7641296386719,65.22482299804688 349.3941650390625,47.35243225097656 359.7641296386719,29.395339965820312 " fill="#FFFFFF"/>
    <polygon stroke="null" id="polygon56" points="381.2615051269531,73.48625183105469 392.38970947265625,92.87673950195312 381.2615051269531,112.18251037597656 358.92120361328125,112.18251037597656 347.79302978515625,92.87673950195312 358.92120361328125,73.48625183105469 " fill="#FFFFFF"/>
    <polygon stroke="null" id="polygon58" points="375.444091796875,2.754913330078125 380.7557678222656,11.943984985351562 375.444091796875,21.13306427001953 364.73779296875,21.13306427001953 359.427001953125,11.943984985351562 364.73779296875,2.754913330078125 " fill="#FFFFFF"/>
    <polygon stroke="null" id="polygon60" points="344.5196228027344,15.231796264648438 351.77801513671875,27.625648498535156 344.5196228027344,40.108428955078125 330.1781921386719,40.108428955078125 323.00701904296875,27.625648498535156 330.1781921386719,15.231796264648438 " fill="#FFFFFF"/>
    <polygon stroke="null" id="polygon62" points="341.3851318359375,95.65879821777344 345.8538818359375,103.41447448730469 341.3851318359375,111.17100524902344 332.36468505859375,111.17100524902344 327.8967590332031,103.41447448730469 332.36468505859375,95.65879821777344 " fill="#FFFFFF"/>
    <polygon stroke="null" id="polygon64" points="315.5885009765625,33.020301818847656 319.8877868652344,40.43883514404297 315.5885009765625,47.85820007324219 306.9890441894531,47.85820007324219 302.77447509765625,40.43883514404297 306.9890441894531,33.020301818847656 " fill="#FFFFFF"/>
    <polygon stroke="null" id="polygon66" points="305.5565185546875,78.03884887695312 310.8673095703125,87.14405822753906 305.5565185546875,96.24842834472656 295.1026306152344,96.24842834472656 289.791015625,87.14405822753906 295.1026306152344,78.03884887695312 " fill="#FFFFFF"/>
    <polygon stroke="null" id="polygon68" points="319.9725341796875,98.01896667480469 323.3442077636719,103.75164794921875 319.9725341796875,109.56906127929688 313.3122253417969,109.56906127929688 310.0243835449219,103.75164794921875 313.3122253417969,98.01896667480469 " fill="#FFFFFF"/>
    <polygon stroke="null" id="polygon70" points="300.6667785644531,58.649200439453125 303.4488220214844,63.538970947265625 300.6667785644531,68.42874145507812 294.93408203125,68.42874145507812 292.1520080566406,63.538970947265625 294.93408203125,58.649200439453125 " fill="#FFFFFF"/>
    <polygon stroke="null" fill="#ffffff" id="polygon72" points="490.77008056640625,121.45542907714844 476.18548583984375,121.45542907714844 468.93560791015625,108.89469909667969 476.18548583984375,96.33311462402344 490.77008056640625,96.33311462402344 498.0208740234375,108.89469909667969 "/>
    <polygon stroke="null" id="polygon74" points="421.89605712890625,1.9120025634765625 433.52996826171875,22.060699462890625 421.89605712890625,42.209381103515625 398.6281433105469,42.209381103515625 386.9941711425781,22.060699462890625 398.6281433105469,1.9120025634765625 " fill="#FFFFFF"/>
    <polygon stroke="null" id="polygon76" points="421.7274475097656,49.03826904296875 433.2775573730469,69.01837158203125 421.7274475097656,88.91461181640625 398.71282958984375,88.91461181640625 387.2474670410156,69.01837158203125 398.71282958984375,49.03826904296875 " fill="#FFFFFF"/>
    <polygon stroke="null" id="polygon78" points="420.5473327636719,96.24842834472656 430.7479248046875,114.03692626953125 420.5473327636719,131.82545471191406 399.976806640625,131.82545471191406 389.6923522949219,114.03692626953125 399.976806640625,96.24842834472656 " fill="#FFFFFF"/>
    <polygon stroke="null" id="polygon80" points="452.33001708984375,158.12869262695312 456.6301574707031,165.71578979492188 452.33001708984375,173.21905517578125 443.6466979980469,173.21905517578125 439.2626953125,165.71578979492188 443.6466979980469,158.12869262695312 " fill="#FFFFFF"/>
    <polygon stroke="null" id="polygon82" points="450.9813537597656,5.790252685546875 455.6177978515625,13.799247741699219 450.9813537597656,21.723526000976562 441.792236328125,21.723526000976562 437.23968505859375,13.799247741699219 441.792236328125,5.790252685546875 " fill="#FFFFFF"/>
    <polygon stroke="null" fill="#ffffff" id="polygon84" points="459.3575439453125,110.43753051757812 469.674560546875,92.26736450195312 459.3575439453125,74.18133544921875 438.5572509765625,74.18133544921875 428.1575012207031,92.26736450195312 438.5572509765625,110.43753051757812 "/>
    <polygon stroke="null" fill="#ffffff" id="polygon86" points="458.9903259277344,64.77023315429688 438.67303466796875,64.77023315429688 428.47161865234375,46.7032470703125 438.67303466796875,28.636268615722656 458.9903259277344,28.636268615722656 469.19091796875,46.7032470703125 "/>
    <polygon stroke="null" fill="#ffffff" id="polygon88" points="458.0626525878906,150.62261962890625 439.5159912109375,150.62261962890625 430.2421875,134.52076721191406 439.5159912109375,118.4180908203125 458.0626525878906,118.4180908203125 467.33648681640625,134.52076721191406 "/>
   </g>
  </g>
  <rect fill="#ffffff" y="720" x="0" width="1280" height="720" id="rect983"/>
  <g id="g1058">
   <g fill="#00aeef" id="g950">
    <polygon fill="#0f75bc" id="polygon906" points="896.9480438232422,1053.7284851074219 884.8069915771484,1074.8255004882812 860.4260101318359,1074.8255004882812 848.1849822998047,1053.7284851074219 860.4260101318359,1032.6315002441406 884.8069915771484,1032.6315002441406 "/>
    <polygon fill="#00aeef" id="polygon908" points="877.3530120849609,1016.3104858398438 871.8799896240234,1025.6654968261719 861.0330047607422,1025.6654968261719 855.5590057373047,1016.3104858398438 861.0330047607422,1006.8574829101562 871.8799896240234,1006.8574829101562 "/>
    <polygon fill="#00aeef" id="polygon910" points="716.4279632568359,1054.4254760742188 702.8929901123047,1077.9104919433594 675.6259613037109,1077.9104919433594 662.0919647216797,1054.4254760742188 675.6259613037109,1030.8404846191406 702.8929901123047,1030.8404846191406 "/>
    <polygon fill="#0f75bc" id="polygon912" points="761.0099945068359,1028.5514831542969 748.7700042724609,1049.6484985351562 724.3889617919922,1049.6484985351562 712.1479949951172,1028.5514831542969 724.3889617919922,1007.3544921875 748.7700042724609,1007.3544921875 "/>
    <polygon fill="#0f75bc" id="polygon914" points="762.9009857177734,1082.2894897460938 749.7649993896484,1105.0784912109375 723.3939666748047,1105.0784912109375 710.2579803466797,1082.2894897460938 723.3939666748047,1059.4004821777344 749.7649993896484,1059.4004821777344 "/>
    <polygon fill="#00aeef" id="polygon916" points="749.1680145263672,986.7544860839844 742.8979949951172,997.6015014648438 730.2599945068359,997.6015014648438 723.9910125732422,986.7544860839844 730.2599945068359,975.907470703125 742.8979949951172,975.907470703125 "/>
    <polygon fill="#00aeef" id="polygon918" points="714.9619598388672,1005.2655029296875 706.3939666748047,1020.00048828125 689.4650115966797,1020.00048828125 680.9999847412109,1005.2655029296875 689.4650115966797,990.635498046875 706.3939666748047,990.635498046875 "/>
    <polygon fill="#00aeef" id="polygon920" points="707.9689788818359,1094.7284851074219 702.6939544677734,1103.8844909667969 692.0460052490234,1103.8844909667969 686.7719573974609,1094.7284851074219 692.0460052490234,1085.573486328125 702.6939544677734,1085.573486328125 "/>
    <polygon fill="#0f75bc" id="polygon922" points="677.3179779052734,1020.3905029296875 672.2429656982422,1029.1484985351562 662.0919647216797,1029.1484985351562 657.1169891357422,1020.3905029296875 662.0919647216797,1011.6334838867188 672.2429656982422,1011.6334838867188 "/>
    <polygon fill="#0f75bc" id="polygon924" points="666.6699676513672,1075.5224914550781 660.4009857177734,1086.2695007324219 648.0609588623047,1086.2695007324219 641.7910003662109,1075.5224914550781 648.0609588623047,1064.7744750976562 660.4009857177734,1064.7744750976562 "/>
    <polygon fill="#0f75bc" id="polygon926" points="681.3979949951172,1095.1264953613281 677.4180145263672,1101.9934997558594 669.5560150146484,1101.9934997558594 665.6749725341797,1095.1264953613281 669.5560150146484,1088.3594970703125 677.4180145263672,1088.3594970703125 "/>
    <polygon fill="#00aeef" id="polygon928" points="657.9130096435547,1047.6584777832031 654.6290130615234,1053.4304809570312 647.8619842529297,1053.4304809570312 644.5779876708984,1047.6584777832031 647.8619842529297,1041.886474609375 654.6290130615234,1041.886474609375 "/>
    <polygon fill="#0f75bc" id="polygon930" points="861.8156238794327,1116.0244140625 853.2576404809952,1101.197509765625 861.8156238794327,1086.3695068359375 879.0316272974014,1086.3695068359375 887.5906482934952,1101.197509765625 879.0316272974014,1116.0244140625 "/>
    <polygon fill="#0f75bc" id="polygon932" points="811.4639739990234,998.6965026855469 797.7310028076172,1022.4804992675781 770.2649993896484,1022.4804992675781 756.5319671630859,998.6965026855469 770.2649993896484,974.9124755859375 797.7310028076172,974.9124755859375 "/>
    <polygon fill="#00aeef" id="polygon934" points="811.1660003662109,1054.1264953613281 797.5319671630859,1077.6124877929688 770.3649749755859,1077.6124877929688 756.8309783935547,1054.1264953613281 770.3649749755859,1030.5414733886719 797.5319671630859,1030.5414733886719 "/>
    <polygon fill="#00aeef" id="polygon936" points="808.1799774169922,1107.2674865722656 796.1389617919922,1128.2655029296875 771.8569793701172,1128.2655029296875 759.7169647216797,1107.2674865722656 771.8569793701172,1086.2695007324219 796.1389617919922,1086.2695007324219 "/>
    <polygon fill="#0f75bc" id="polygon938" points="838.7319793701172,1168.2704772949219 833.6559906005859,1177.1275024414062 823.4059906005859,1177.1275024414062 818.2310028076172,1168.2704772949219 823.4059906005859,1159.3144836425781 833.6559906005859,1159.3144836425781 "/>
    <polygon fill="#0f75bc" id="polygon940" points="837.5369720458984,988.9444885253906 832.0640106201172,998.2984924316406 821.2169647216797,998.2984924316406 815.8430023193359,988.9444885253906 821.2169647216797,979.490478515625 832.0640106201172,979.490478515625 "/>
    <polygon fill="#0f75bc" id="polygon942" points="854.129930353855,1081.5701692789917 841.9514941756543,1060.2209843864318 817.3983129864624,1060.2209843864318 805.1221741611963,1081.5701692789917 817.3983129864624,1103.0186515781006 841.9514941756543,1103.0186515781006 "/>
    <polygon fill="#00aeef" id="polygon944" points="817.5349731445312,1049.1119121100585 805.4929809570312,1027.7851966862547 817.5349731445312,1006.4584812624511 841.5180053710938,1006.4584812624511 853.5590209960938,1027.7851966862547 841.5180053710938,1049.1119121100585 "/>
    <polygon fill="#00aeef" id="polygon946" points="818.530029296875,1150.4541467428207 807.5830078125,1131.4470666646957 818.530029296875,1112.4391320943832 840.4229736328125,1112.4391320943832 851.3699951171875,1131.4470666646957 840.4229736328125,1150.4541467428207 "/>
    <path fill="#0f75bc" id="path948" d="m515.507,1114.532483l0,10.748l11.842,0l0,-10.748l-11.842,0zm103.197,0l0,10.748l11.842,0l0,-10.748l-11.842,0zm-216.545,4.677c-1.891,0 -3.981,0.398 -6.269,1.095c-2.189,0.697 -4.279,1.791 -6.17,3.383c-1.891,1.493 -3.483,3.483 -4.777,5.971c-1.294,2.488 -1.891,5.473 -1.891,9.056c0,3.583 0.597,6.568 1.891,9.056c1.294,2.488 2.886,4.478 4.777,5.971c1.891,1.592 3.981,2.687 6.17,3.384c2.289,0.697 4.379,0.995 6.269,0.995l27.367,0c1.095,0 2.09,0.199 2.985,0.498c0.896,0.398 1.692,0.896 2.289,1.592c0.697,0.697 1.194,1.493 1.493,2.388c0.299,0.896 0.498,1.891 0.498,2.985c0,2.289 -0.597,4.08 -1.891,5.473c-1.294,1.294 -3.085,1.99 -5.374,1.99l-45.876,0l0,11.942l45.876,0c1.294,0 2.687,-0.199 4.08,-0.498c1.493,-0.298 2.886,-0.796 4.379,-1.393c1.393,-0.697 2.687,-1.493 4.08,-2.488c1.294,-0.995 2.388,-2.189 3.384,-3.682c0.995,-1.393 1.791,-3.085 2.388,-4.976c0.597,-1.891 0.896,-3.981 0.896,-6.369c0,-2.289 -0.299,-4.379 -0.896,-6.269c-0.597,-1.891 -1.393,-3.483 -2.388,-4.976c-0.995,-1.393 -2.09,-2.687 -3.384,-3.682c-1.294,-0.995 -2.687,-1.891 -4.08,-2.488c-1.393,-0.696 -2.786,-1.194 -4.279,-1.493c-1.393,-0.398 -2.786,-0.498 -4.08,-0.597l-0.1,0l-27.367,0c-2.289,0 -4.08,-0.597 -5.274,-1.891c-1.294,-1.393 -1.891,-3.185 -1.891,-5.473c0,-2.288 0.597,-4.08 1.891,-5.473c1.194,-1.393 2.985,-2.09 5.274,-2.09l40.503,0l0,-11.942l-40.503,0l0,0.001zm138.027,0l0,65.779l11.942,0l0,-26.869l41.796,0l0,26.869l11.942,0l0,-65.779l-11.942,0l0,26.869l-41.796,0l0,-26.869l-11.942,0zm-67.172,16.221c-1.99,0 -3.881,0.298 -5.473,0.796c-1.592,0.498 -3.085,1.194 -4.279,2.09c-1.294,0.796 -2.289,1.791 -3.184,2.985c-0.896,1.095 -1.592,2.289 -2.09,3.483c-0.597,1.294 -0.995,2.488 -1.294,3.781c-0.199,1.194 -0.299,2.388 -0.299,3.583l0,16.121c0,3.085 0.498,5.672 1.592,7.762c1.194,2.189 2.587,3.881 4.18,5.175c1.692,1.393 3.483,2.289 5.473,2.886c1.99,0.597 3.782,0.896 5.374,0.896l32.342,0l0,-11.942l-32.243,0c-1.592,0 -2.786,-0.398 -3.583,-1.194c-0.796,-0.896 -1.294,-2.09 -1.294,-3.583l0,-16.022c0,-1.692 0.398,-2.886 1.194,-3.682c0.896,-0.796 2.09,-1.194 3.583,-1.194l32.342,0l0,-11.941l-32.341,0zm42.493,0l0,49.559l11.842,0l0,-49.559l-11.842,0zm103.197,0l0,49.559l11.842,0l0,-49.559l-11.842,0zm23.187,0l0,43.687c0,0.896 0.199,1.592 0.498,2.388c0.299,0.696 0.697,1.294 1.294,1.891c0.498,0.498 1.194,0.896 1.891,1.194c0.796,0.298 1.493,0.497 2.388,0.497c4.777,0 9.255,-0.696 13.335,-1.99c4.08,-1.294 7.862,-3.085 11.345,-5.374c3.583,-2.289 6.767,-4.976 9.653,-8.061c2.886,-3.185 5.473,-6.568 7.762,-10.25c2.388,-3.682 4.478,-7.563 6.269,-11.643c1.791,-3.981 3.383,-8.16 4.677,-12.34l-12.638,0c-0.498,2.09 -1.393,4.478 -2.488,7.165c-1.095,2.687 -2.488,5.374 -4.08,8.16c-1.592,2.687 -3.384,5.374 -5.374,8.061c-2.09,2.587 -4.279,4.976 -6.667,7.066c-2.388,1.99 -4.876,3.682 -7.563,4.876c-2.687,1.294 -5.473,1.891 -8.359,1.891l0,-37.218l-11.943,0zm78.816,0c-2.985,0 -5.473,0.597 -7.663,1.692c-1.99,1.095 -3.682,2.388 -5.075,4.08c-1.294,1.592 -2.189,3.384 -2.786,5.274c-0.597,1.99 -0.796,3.682 -0.796,5.374l0,16.718c0,2.986 0.498,5.573 1.592,7.663c1.095,2.09 2.488,3.782 4.08,5.075c1.692,1.294 3.384,2.189 5.274,2.786c1.99,0.597 3.782,0.896 5.374,0.896l21.495,0l0,-11.345l-21.396,0c-1.393,0 -2.687,-0.497 -3.682,-1.393c-0.995,-0.896 -1.493,-2.09 -1.493,-3.682l0,-0.299l26.57,0c2.985,0 5.573,-0.597 7.663,-1.692c2.09,-1.095 3.782,-2.488 5.075,-4.08c1.294,-1.592 2.289,-3.383 2.786,-5.274c0.597,-1.99 0.896,-3.782 0.896,-5.374c0,-2.986 -0.498,-5.573 -1.592,-7.663c-1.194,-2.09 -2.488,-3.782 -4.18,-5.075c-1.592,-1.294 -3.384,-2.189 -5.274,-2.786c-1.891,-0.597 -3.682,-0.896 -5.374,-0.896l-21.494,0l0,0.001zm0,11.345l21.495,0c1.393,0 2.587,0.398 3.583,1.294c0.995,0.896 1.493,2.09 1.493,3.682c0,1.493 -0.398,2.687 -1.294,3.682c-0.896,0.995 -2.09,1.493 -3.782,1.493l-26.57,0l0,-4.976c0,-1.493 0.498,-2.687 1.393,-3.682c0.796,-0.996 2.089,-1.493 3.682,-1.493z"/>
   </g>
  </g>
 </g>
</svg>