<svg xmlns="http://www.w3.org/2000/svg" preserveAspectRatio="xMinYMin slice" viewbox="0 0 255 202">
 <!-- Created with Method Draw - http://github.com/duopixel/Method-Draw/ -->
 <g>
  <title>Layer 1</title>
  <g id="g92">
   <g id="svg_24">
    <polygon id="svg_1" points="245.8070068359375,60.96431386470795 257.947998046875,82.06130635738373 245.8070068359375,103.1583446264267 221.426025390625,103.1583446264267 209.18505859375,82.06130635738373 221.426025390625,60.96431386470795 " fill="#FFFFFF"/>
    <polygon id="svg_2" points="232.8800048828125,35.1903270483017 238.35302734375,44.6433299779892 232.8800048828125,53.99837148189545 222.032958984375,53.99837148189545 216.55908203125,44.6433299779892 222.032958984375,35.1903270483017 " fill="#FFFFFF"/>
    <polygon id="svg_3" points="63.89300537109375,59.1733592748642 77.427978515625,82.75832784175873 63.89300537109375,106.24337422847748 36.6259765625,106.24337422847748 23.09197998046875,82.75832784175873 36.6259765625,59.1733592748642 " fill="#FFFFFF"/>
    <polygon id="svg_4" points="109.77001953125,35.68733632564545 122.010009765625,56.8842967748642 109.77001953125,77.98135030269623 85.3890380859375,77.98135030269623 73.14801025390625,56.8842967748642 85.3890380859375,35.68733632564545 " fill="#FFFFFF"/>
    <polygon id="svg_5" points="110.7650146484375,87.73336446285248 123.9010009765625,110.62234151363373 110.7650146484375,133.41133534908295 84.39404296875,133.41133534908295 71.25799560546875,110.62234151363373 84.39404296875,87.73336446285248 " fill="#FFFFFF"/>
    <polygon id="svg_6" points="103.89794921875,4.240315318107605 110.16796875,15.087330222129822 103.89794921875,25.934345602989197 91.260009765625,25.934345602989197 84.990966796875,15.087330222129822 91.260009765625,4.240315318107605 " fill="#FFFFFF"/>
    <polygon id="svg_7" points="67.39398193359375,18.968342185020447 75.9619140625,33.59834706783295 67.39398193359375,48.33333241939545 50.46502685546875,48.33333241939545 42,33.59834706783295 50.46502685546875,18.968342185020447 " fill="#FFFFFF"/>
    <polygon id="svg_8" points="63.6939697265625,113.90633809566498 68.968994140625,123.06130635738373 63.6939697265625,132.21736562252045 53.0460205078125,132.21736562252045 47.77197265625,123.06130635738373 53.0460205078125,113.90633809566498 " fill="#FFFFFF"/>
    <polygon id="svg_9" points="33.24298095703125,39.9663280248642 38.3179931640625,48.72334706783295 33.24298095703125,57.4813426733017 23.09197998046875,57.4813426733017 18.11700439453125,48.72334706783295 23.09197998046875,39.9663280248642 " fill="#FFFFFF"/>
    <polygon id="svg_10" points="21.4010009765625,93.10732686519623 27.66998291015625,103.85531270503998 21.4010009765625,114.60238301753998 9.06097412109375,114.60238301753998 2.791015625,103.85531270503998 9.06097412109375,93.10732686519623 " fill="#FFFFFF"/>
    <polygon id="svg_11" points="38.41802978515625,116.69234883785248 42.39801025390625,123.45930898189545 38.41802978515625,130.32637441158295 30.5560302734375,130.32637441158295 26.67498779296875,123.45930898189545 30.5560302734375,116.69234883785248 " fill="#FFFFFF"/>
    <polygon id="svg_12" points="15.6290283203125,70.21931874752045 18.91302490234375,75.99129903316498 15.6290283203125,81.76333272457123 8.86199951171875,81.76333272457123 5.5780029296875,75.99129903316498 8.86199951171875,70.21931874752045 " fill="#FFFFFF"/>
    <polygon fill="#ffffff" id="svg_13" points="240.0316162109375,144.3573192358017 222.815673828125,144.3573192358017 214.257568359375,129.5302928686142 222.815673828125,114.7022899389267 240.0316162109375,114.7022899389267 248.590576171875,129.5302928686142 "/>
    <polygon id="svg_14" points="158.73095703125,3.245319962501526 172.4639892578125,27.029346823692322 158.73095703125,50.8133739233017 131.2650146484375,50.8133739233017 117.531982421875,27.029346823692322 131.2650146484375,3.245319962501526 " fill="#FFFFFF"/>
    <polygon id="svg_15" points="158.531982421875,58.87434804439545 172.166015625,82.45930898189545 158.531982421875,105.9453319311142 131.364990234375,105.9453319311142 117.8310546875,82.45930898189545 131.364990234375,58.87434804439545 " fill="#FFFFFF"/>
    <polygon id="svg_16" points="157.138916015625,114.60238301753998 169.1800537109375,135.60030019283295 157.138916015625,156.59834706783295 132.85693359375,156.59834706783295 120.7169189453125,135.60030019283295 132.85693359375,114.60238301753998 " fill="#FFFFFF"/>
    <polygon id="svg_17" points="194.656005859375,187.64729726314545 199.73193359375,196.6032909154892 194.656005859375,205.4603465795517 184.406005859375,205.4603465795517 179.23095703125,196.6032909154892 184.406005859375,187.64729726314545 " fill="#FFFFFF"/>
    <polygon id="svg_18" points="193.06396484375,7.823323130607605 198.5369873046875,17.277332663536072 193.06396484375,26.631336569786072 182.217041015625,26.631336569786072 176.843017578125,17.277332663536072 182.217041015625,7.823323130607605 " fill="#FFFFFF"/>
    <polygon fill="#ffffff" id="svg_19" points="202.951416015625,131.35152089595795 215.1298828125,109.90304219722748 202.951416015625,88.55386006832123 178.3983154296875,88.55386006832123 166.1221923828125,109.90304219722748 178.3983154296875,131.35152089595795 "/>
    <polygon fill="#ffffff" id="svg_20" points="202.51806640625,77.44472920894623 178.534912109375,77.44472920894623 166.492919921875,56.11800038814545 178.534912109375,34.79130971431732 202.51806640625,34.79130971431732 214.55908203125,56.11800038814545 "/>
    <polygon fill="#ffffff" id="svg_21" points="201.4229736328125,178.78694570064545 179.530029296875,178.78694570064545 168.5830078125,159.77998769283295 179.530029296875,140.77193105220795 201.4229736328125,140.77193105220795 212.3699951171875,159.77998769283295 "/>
   </g>
  </g>
 </g>
</svg>